# xmcd CD database file generated by MAGIX-FreeDB-Music_Manager_2007 v2.0beta1
# 
# Track frame offsets:
#      182
#      18972
#      34797
#      52297
#      67930
#      90612
#      112940
#      131787
#      147035
#      164337
#      187250
# 
# Disc length: 3023 seconds
# 
# Revision: 2 
# Processed by: cddbd v1.5.2PL0 Copyright (c) Steve Scherf et al.
# Submitted via: MAGIX-FreeDB-Music_Manager_2007 v2.0beta1
# 
DISCID=980bcd0b
DTITLE=Chris de Burgh - Best Moves
DYEAR=1981
DGENRE=Blues
TTITLE0=Chris de Burgh - The Traveller
TTITLE1=Chris de Burgh - Every Drop of Rain
TTITLE2=Chris de Burgh - In a Country Churchyard
TTITLE3=Chris de Burgh - Patricia the Stripper
TTITLE4=Chris de Burgh - Satin Green Shutters
TTITLE5=Chris de Burgh - Spanish Train
TTITLE6=Chris de Burgh - Waiting for the Hurricane
TTITLE7=Chris de Burgh - Broken Wings
TTITLE8=Chris de Burgh - Lonely Sky
TTITLE9=Chris de Burgh - A Spaceman Came Travelling
TTITLE10=Chris de Burgh - Crusader
EXTD=
EXTT0=
EXTT1=
EXTT2=
EXTT3=
EXTT4=
EXTT5=
EXTT6=
EXTT7=
EXTT8=
EXTT9=
EXTT10=
PLAYORDER=
